<?xml version="1.0" encoding="UTF-8" standalone="no"?>
<!DOCTYPE svg PUBLIC "-//W3C//DTD SVG 1.1//EN" "http://www.w3.org/Graphics/SVG/1.1/DTD/svg11.dtd">
<svg width="100%" height="100%" viewBox="0 0 3508 646" version="1.1" xmlns="http://www.w3.org/2000/svg" xmlns:xlink="http://www.w3.org/1999/xlink" xml:space="preserve" xmlns:serif="http://www.serif.com/" style="fill-rule:evenodd;clip-rule:evenodd;stroke-linejoin:round;stroke-miterlimit:2;">
    <rect id="Artboard1" x="0" y="0" width="3507.87" height="645.315" style="fill:none;"/>
    <g>
        <path d="M184.825,394.983L363.598,394.983L363.598,288.523L184.825,288.523L184.825,204.828L374.311,204.828L374.311,95.689L71,95.689L71,564.382L184.825,564.382L184.825,394.983Z" style="fill-rule:nonzero;"/>
        <path d="M689.005,95.689L419.172,95.689L419.172,200.141L496.841,200.141L496.841,461.939L419.172,461.939L419.172,564.382L689.005,564.382L689.005,461.939L611.336,461.939L611.336,200.141L689.005,200.141L689.005,95.689Z" style="fill-rule:nonzero;"/>
        <path d="M830.952,385.609L1023.12,385.609L1023.12,274.462L830.952,274.462L830.952,206.167L1027.13,206.167L1027.13,95.689L718.465,95.689L718.465,564.382L1027.8,564.382L1027.8,453.904L830.952,453.904L830.952,385.609Z" style="fill-rule:nonzero;"/>
        <path d="M1196.53,95.689L1082.04,95.689L1082.04,564.382L1393.38,564.382L1393.38,453.904L1196.53,453.904L1196.53,95.689Z" style="fill-rule:nonzero;"/>
        <path d="M1557.42,457.252L1557.42,201.48L1617.69,201.48C1696.69,201.48 1734.19,269.105 1734.19,330.705C1734.19,392.305 1696.69,457.252 1617.69,457.252L1557.42,457.252ZM1444.27,95.689L1444.27,564.382L1617.69,564.382C1772.35,564.382 1850.02,447.878 1850.02,330.705C1850.02,213.532 1772.35,95.689 1617.69,95.689L1444.27,95.689Z" style="fill-rule:nonzero;"/>
        <path d="M1901.58,95.689L1901.58,564.382L2016.07,564.382L2016.07,425.113L2081.02,425.113C2299.97,425.113 2300.64,95.689 2081.02,95.689L1901.58,95.689ZM2016.07,317.314L2016.07,206.836L2081.02,206.836C2151.99,206.836 2151.99,317.314 2081.02,317.314L2016.07,317.314Z" style="fill-rule:nonzero;"/>
        <path d="M2563.78,564.382L2693,564.382L2498.16,90.333L2416.47,90.333L2228.99,564.382L2351.52,564.382L2377.64,495.417L2537.66,495.417L2563.78,564.382ZM2457.99,279.149L2494.14,380.922L2496.82,388.957L2419.15,388.957L2423.17,378.244L2457.99,279.149Z" style="fill-rule:nonzero;"/>
        <path d="M2910.61,564.382L2910.61,202.819L3036.49,202.819L3036.49,95.689L2669.57,95.689L2669.57,202.819L2796.11,202.819L2796.11,564.382L2910.61,564.382Z" style="fill-rule:nonzero;"/>
        <path d="M3197.18,95.689L3082.68,95.689L3082.68,564.382L3197.18,564.382L3197.18,382.931L3320.38,382.931L3320.38,564.382L3434.87,564.382L3434.87,95.689L3320.38,95.689L3320.38,272.453L3197.18,272.453L3197.18,95.689Z" style="fill-rule:nonzero;"/>
    </g>
</svg>
